<?xml version="1.0" standalone="no"?>
<!DOCTYPE svg PUBLIC "-//W3C//DTD SVG 20010904//EN"
 "http://www.w3.org/TR/2001/REC-SVG-20010904/DTD/svg10.dtd">
<svg version="1.0" xmlns="http://www.w3.org/2000/svg"
 width="1200.000000pt" height="872.000000pt" viewBox="0 0 1200.000000 872.000000"
 preserveAspectRatio="xMidYMid meet">

<g transform="translate(0.000000,872.000000) scale(0.100000,-0.100000)"
fill="#000000" stroke="none">
<path d="M4235 8693 c-937 -20 -1855 -356 -2595 -948 -655 -525 -1140 -1223
-1404 -2020 -89 -269 -161 -603 -198 -920 -20 -173 -17 -734 5 -920 100 -840
413 -1586 942 -2245 120 -150 378 -416 530 -547 599 -517 1325 -860 2102 -992
420 -72 902 -80 1324 -21 802 112 1560 447 2178 964 272 228 554 533 757 821
113 160 114 166 9 60 -687 -688 -1599 -1052 -2560 -1022 -768 25 -1467 283
-2070 763 -150 120 -411 382 -533 537 -605 762 -861 1713 -721 2672 149 1024
754 1928 1651 2468 402 243 832 393 1329 464 181 26 700 26 884 0 794 -113
1474 -450 2019 -1002 79 -79 93 -91 70 -55 -223 347 -564 720 -909 997 -703
564 -1612 909 -2470 938 -82 3 -170 7 -195 8 -25 1 -90 1 -145 0z"/>
<path d="M9500 5631 l0 -780 -342 -111 c-944 -307 -1142 -373 -1128 -378 8 -3
341 -112 740 -242 l725 -236 5 -782 5 -783 454 626 c249 344 457 628 461 630
4 3 340 -103 746 -235 406 -132 739 -238 740 -237 1 1 -160 225 -358 497 -197
272 -403 556 -457 631 l-99 136 457 629 c252 346 456 631 455 632 -1 2 -283
-87 -626 -198 -343 -112 -676 -220 -740 -240 l-117 -37 -457 628 c-251 346
-458 629 -460 629 -2 0 -4 -351 -4 -779z"/>
</g>
</svg>
